<?xml version="1.0" encoding="UTF-8"?>
<svg version="1.1" xmlns="http://www.w3.org/2000/svg" width="512" height="512">
<path d="M0 0 C168.96 0 337.92 0 512 0 C512 168.96 512 337.92 512 512 C343.04 512 174.08 512 0 512 C0 343.04 0 174.08 0 0 Z " fill="#222222" transform="translate(0,0)"/>
<path d="M0 0 C1.4713254 -0.00271601 2.94264944 -0.00628034 4.41397095 -0.01062012 C8.37637331 -0.0196691 12.33867051 -0.01623238 16.3010745 -0.00986195 C20.46004725 -0.00476862 24.61901149 -0.00950208 28.77798462 -0.01263428 C35.75304774 -0.01626183 42.72806835 -0.01150418 49.703125 -0.00195312 C57.76203372 0.00895474 65.82084142 0.00538411 73.87974775 -0.00560594 C80.81418165 -0.01468285 87.74858517 -0.01596288 94.6830231 -0.0107286 C98.81843703 -0.00761442 102.95380346 -0.00718491 107.08921432 -0.01380157 C110.97169355 -0.01958119 114.85404228 -0.01556693 118.73650742 -0.00401306 C120.15991499 -0.00137088 121.58333357 -0.00212404 123.00673676 -0.00653839 C124.95088811 -0.01201175 126.89506351 -0.00392794 128.83920288 0.00482178 C129.92645849 0.00557583 131.0137141 0.00632988 132.13391685 0.00710678 C135.17642142 0.26871031 137.34707548 0.87395425 140.06103516 2.25878906 C145.67149026 13.47969927 140.78145764 38.86384773 137.18603516 50.25878906 C133.98081848 58.47215679 129.58624769 63.9550445 121.62353516 68.00878906 C115.90720584 70.01451865 110.33492115 70.38365593 104.31034851 70.39250183 C102.99100815 70.39676682 101.67166779 70.4010318 100.31234741 70.40542603 C98.86749265 70.40507659 97.4226379 70.40461511 95.9777832 70.40405273 C94.44306863 70.4070476 92.90835481 70.41045089 91.37364197 70.41423035 C87.22115802 70.42303536 83.06869469 70.42540682 78.91620231 70.42604613 C76.32225884 70.42675795 73.7283206 70.42889463 71.13437843 70.43154335 C62.08705945 70.44078101 53.03975518 70.4448797 43.99243164 70.4440918 C35.55296964 70.44348952 27.11357125 70.45407474 18.67412537 70.46983546 C11.42730078 70.48288791 4.18049707 70.48827675 -3.06633919 70.48763639 C-7.39454813 70.48738098 -11.72270035 70.49025666 -16.0508976 70.50081444 C-20.1146936 70.51045829 -24.17837815 70.51060035 -28.24217796 70.50329781 C-29.73618608 70.50224773 -31.23020102 70.50463975 -32.72419739 70.51065826 C-34.75718321 70.51832043 -36.79020665 70.51256038 -38.82319641 70.50602722 C-40.5323899 70.50684437 -40.5323899 70.50684437 -42.27611256 70.50767803 C-44.93896484 70.25878906 -44.93896484 70.25878906 -46.93896484 68.25878906 C-47.14667679 65.4882783 -47.22106264 62.84202625 -47.18896484 60.07128906 C-47.18292236 59.23992432 -47.17687988 58.40855957 -47.1706543 57.55200195 C-47.06703379 50.74884472 -46.66857396 43.97763161 -46.12646484 37.19628906 C-46.0565332 36.25825439 -45.98660156 35.32021973 -45.91455078 34.35375977 C-45.04571234 24.58798112 -43.14466036 15.34286947 -35.93896484 8.25878906 C-25.25304943 -0.17745995 -13.10399173 -0.04102058 0 0 Z " fill="#FEFEFE" transform="translate(208.93896484375,220.7412109375)"/>
<path d="M0 0 C0.33 0 0.66 0 1 0 C1 13.53 1 27.06 1 41 C-12.53 41 -26.06 41 -40 41 C-36.76284016 39.38142008 -33.61375469 38.05715856 -30.25 36.75 C-24.78388069 34.47853851 -20.44415797 31.88380762 -16 28 C-15.40703125 27.52304687 -14.8140625 27.04609375 -14.203125 26.5546875 C-6.56114327 19.82568589 -2.52693015 9.66396702 0 0 Z " fill="#000000" transform="translate(511,471)"/>
<path d="M0 0 C1.61857992 3.23715984 2.94284144 6.38624531 4.25 9.75 C6.52146149 15.21611931 9.11619238 19.55584203 13 24 C13.71542969 24.88945312 13.71542969 24.88945312 14.4453125 25.796875 C21.17431411 33.43885673 31.33603298 37.47306985 41 40 C41 40.33 41 40.66 41 41 C27.47 41 13.94 41 0 41 C0 27.47 0 13.94 0 0 Z " fill="#000000" transform="translate(0,471)"/>
<path d="M0 0 C13.53 0 27.06 0 41 0 C41 13.53 41 27.06 41 41 C39.38142008 37.76284016 38.05715856 34.61375469 36.75 31.25 C34.47853851 25.78388069 31.88380762 21.44415797 28 17 C27.52304687 16.40703125 27.04609375 15.8140625 26.5546875 15.203125 C19.82568589 7.56114327 9.66396702 3.52693015 0 1 C0 0.67 0 0.34 0 0 Z " fill="#000000" transform="translate(471,0)"/>
<path d="M0 0 C13.53 0 27.06 0 41 0 C37.76284016 1.61857992 34.61375469 2.94284144 31.25 4.25 C25.78388069 6.52146149 21.44415797 9.11619238 17 13 C16.40703125 13.47695312 15.8140625 13.95390625 15.203125 14.4453125 C7.56114327 21.17431411 3.52693015 31.33603298 1 41 C0.67 41 0.34 41 0 41 C0 27.47 0 13.94 0 0 Z " fill="#000000" transform="translate(0,0)"/>
</svg>
